<svg viewBox="0 0 721.14 282.62" xmlns="http://www.w3.org/2000/svg"><g fill="#d4fde6"><path d="m0 148.86 133.26-148.86h66.47l-88.2 98.11 88.52 128.47h-63l-61-89.16-25.56 28.44v60.72h-50.49"/><path d="m367.84 142c0 49.21-36.75 84.37-84.37 84.37-47.3 0-84.37-35.15-84.37-84.37s37.07-84 84.37-84c47.62 0 84.37 34.79 84.37 84zm-48.58 0c0-26.84-17.26-39.31-35.79-39.31-18.22 0-35.79 12.46-35.79 39.31 0 26.52 17.58 39.63 35.79 39.63 18.53 0 35.8-12.78 35.8-39.63z"/><path d="m400.37 282.62 36.11-82.45-69.01-142.17h54.33l40.89 89.8 37.66-89.8h51.45l-100.3 224.62z"/><path d="m721.14 142c0 49.21-36.75 84.37-84.37 84.37-47.3 0-84.37-35.15-84.37-84.37s37.07-84 84.37-84c47.62 0 84.37 34.79 84.37 84zm-48.58 0c0-26.84-17.26-39.31-35.79-39.31-18.21.01-35.77 12.47-35.77 39.31 0 26.52 17.58 39.63 35.79 39.63 18.52 0 35.78-12.78 35.78-39.63z"/><path d="m0 0v80.58l71.82-80.58z"/></g></svg>